<?xml version="1.0" standalone="no"?>
<svg xmlns:xlink="http://www.w3.org/1999/xlink" id="wave" style="transform:rotate(180deg); transition: 0.3s" viewBox="0 0 1440 420" version="1.1" xmlns="http://www.w3.org/2000/svg"><defs><linearGradient id="sw-gradient-0" x1="0" x2="0" y1="1" y2="0"><stop stop-color="rgba(201.934, 244.043, 239.764, 1)" offset="0%"/><stop stop-color="rgba(225.984, 241.766, 241.232, 1)" offset="100%"/></linearGradient></defs><path style="transform:translate(0, 0px); opacity:1" fill="url(#sw-gradient-0)" d="M0,336L40,343C80,350,160,364,240,343C320,322,400,266,480,252C560,238,640,266,720,238C800,210,880,126,960,84C1040,42,1120,42,1200,49C1280,56,1360,70,1440,77C1520,84,1600,84,1680,112C1760,140,1840,196,1920,196C2000,196,2080,140,2160,154C2240,168,2320,252,2400,245C2480,238,2560,140,2640,91C2720,42,2800,42,2880,49C2960,56,3040,70,3120,77C3200,84,3280,84,3360,105C3440,126,3520,168,3600,154C3680,140,3760,70,3840,56C3920,42,4000,84,4080,119C4160,154,4240,182,4320,168C4400,154,4480,98,4560,63C4640,28,4720,14,4800,14C4880,14,4960,28,5040,91C5120,154,5200,266,5280,315C5360,364,5440,350,5520,294C5600,238,5680,140,5720,91L5760,42L5760,420L5720,420C5680,420,5600,420,5520,420C5440,420,5360,420,5280,420C5200,420,5120,420,5040,420C4960,420,4880,420,4800,420C4720,420,4640,420,4560,420C4480,420,4400,420,4320,420C4240,420,4160,420,4080,420C4000,420,3920,420,3840,420C3760,420,3680,420,3600,420C3520,420,3440,420,3360,420C3280,420,3200,420,3120,420C3040,420,2960,420,2880,420C2800,420,2720,420,2640,420C2560,420,2480,420,2400,420C2320,420,2240,420,2160,420C2080,420,2000,420,1920,420C1840,420,1760,420,1680,420C1600,420,1520,420,1440,420C1360,420,1280,420,1200,420C1120,420,1040,420,960,420C880,420,800,420,720,420C640,420,560,420,480,420C400,420,320,420,240,420C160,420,80,420,40,420L0,420Z"/></svg>