<?xml version="1.0" standalone="no"?>
<svg xmlns:xlink="http://www.w3.org/1999/xlink" id="wave" style="transform:rotate(180deg); transition: 0.3s" viewBox="0 0 1440 490" version="1.1" xmlns="http://www.w3.org/2000/svg"><defs><linearGradient id="sw-gradient-0" x1="0" x2="0" y1="1" y2="0"><stop stop-color="rgba(201.934, 244.043, 239.764, 1)" offset="0%"/><stop stop-color="rgba(225.984, 241.766, 241.232, 1)" offset="100%"/></linearGradient></defs><path style="transform:translate(0, 0px); opacity:1" fill="url(#sw-gradient-0)" d="M0,392L40,400.2C80,408,160,425,240,400.2C320,376,400,310,480,294C560,278,640,310,720,277.7C800,245,880,147,960,98C1040,49,1120,49,1200,57.2C1280,65,1360,82,1440,89.8C1520,98,1600,98,1680,130.7C1760,163,1840,229,1920,228.7C2000,229,2080,163,2160,179.7C2240,196,2320,294,2400,285.8C2480,278,2560,163,2640,106.2C2720,49,2800,49,2880,57.2C2960,65,3040,82,3120,89.8C3200,98,3280,98,3360,122.5C3440,147,3520,196,3600,179.7C3680,163,3760,82,3840,65.3C3920,49,4000,98,4080,138.8C4160,180,4240,212,4320,196C4400,180,4480,114,4560,73.5C4640,33,4720,16,4800,16.3C4880,16,4960,33,5040,106.2C5120,180,5200,310,5280,367.5C5360,425,5440,408,5520,343C5600,278,5680,163,5720,106.2L5760,49L5760,490L5720,490C5680,490,5600,490,5520,490C5440,490,5360,490,5280,490C5200,490,5120,490,5040,490C4960,490,4880,490,4800,490C4720,490,4640,490,4560,490C4480,490,4400,490,4320,490C4240,490,4160,490,4080,490C4000,490,3920,490,3840,490C3760,490,3680,490,3600,490C3520,490,3440,490,3360,490C3280,490,3200,490,3120,490C3040,490,2960,490,2880,490C2800,490,2720,490,2640,490C2560,490,2480,490,2400,490C2320,490,2240,490,2160,490C2080,490,2000,490,1920,490C1840,490,1760,490,1680,490C1600,490,1520,490,1440,490C1360,490,1280,490,1200,490C1120,490,1040,490,960,490C880,490,800,490,720,490C640,490,560,490,480,490C400,490,320,490,240,490C160,490,80,490,40,490L0,490Z"/></svg>