<?xml version="1.0" standalone="no"?>
<svg xmlns:xlink="http://www.w3.org/1999/xlink" id="wave" style="transform:rotate(0deg); transition: 0.3s" viewBox="0 0 1440 250" version="1.1" xmlns="http://www.w3.org/2000/svg"><defs><linearGradient id="sw-gradient-0" x1="0" x2="0" y1="1" y2="0"><stop stop-color="rgba(190.925, 237.213, 235.645, 1)" offset="0%"/><stop stop-color="rgba(204.336, 232.659, 227.862, 1)" offset="100%"/></linearGradient></defs><path style="transform:translate(0, 0px); opacity:1" fill="url(#sw-gradient-0)" d="M0,25L24,41.7C48,58,96,92,144,125C192,158,240,192,288,183.3C336,175,384,125,432,91.7C480,58,528,42,576,45.8C624,50,672,75,720,87.5C768,100,816,100,864,83.3C912,67,960,33,1008,33.3C1056,33,1104,67,1152,87.5C1200,108,1248,117,1296,112.5C1344,108,1392,92,1440,70.8C1488,50,1536,25,1584,29.2C1632,33,1680,67,1728,83.3C1776,100,1824,100,1872,112.5C1920,125,1968,150,2016,154.2C2064,158,2112,142,2160,125C2208,108,2256,92,2304,104.2C2352,117,2400,158,2448,179.2C2496,200,2544,200,2592,183.3C2640,167,2688,133,2736,100C2784,67,2832,33,2880,25C2928,17,2976,33,3024,66.7C3072,100,3120,150,3168,166.7C3216,183,3264,167,3312,141.7C3360,117,3408,83,3432,66.7L3456,50L3456,250L3432,250C3408,250,3360,250,3312,250C3264,250,3216,250,3168,250C3120,250,3072,250,3024,250C2976,250,2928,250,2880,250C2832,250,2784,250,2736,250C2688,250,2640,250,2592,250C2544,250,2496,250,2448,250C2400,250,2352,250,2304,250C2256,250,2208,250,2160,250C2112,250,2064,250,2016,250C1968,250,1920,250,1872,250C1824,250,1776,250,1728,250C1680,250,1632,250,1584,250C1536,250,1488,250,1440,250C1392,250,1344,250,1296,250C1248,250,1200,250,1152,250C1104,250,1056,250,1008,250C960,250,912,250,864,250C816,250,768,250,720,250C672,250,624,250,576,250C528,250,480,250,432,250C384,250,336,250,288,250C240,250,192,250,144,250C96,250,48,250,24,250L0,250Z"/></svg>