<?xml version="1.0" encoding="utf-8"?><svg xmlns="http://www.w3.org/2000/svg" xmlns:xlink="http://www.w3.org/1999/xlink" width="1366" height="629" preserveAspectRatio="xMidYMid" viewBox="0 0 1366 629" style="z-index:1;shape-rendering:crispedges;margin-right:-2px;display:block;background-repeat-y:initial;background-repeat-x:initial;background-color:rgb(249, 249, 249);animation-play-state:paused" ><g transform="translate(683,314.5) scale(-1,-1) translate(-683,-314.5)" style="transform:matrix(-1, 0, 0, -1, 1366, 629);animation-play-state:paused" ><linearGradient id="lg-0.36992033403396674" x1="0" x2="1" y1="0" y2="0" style="animation-play-state:paused" ><stop stop-color="#93dbe9" offset="0" style="animation-play-state:paused" ></stop>

  
<stop stop-color="#c6dee3" offset="1" style="animation-play-state:paused" ></stop></linearGradient>
<path d="M 0 0 L 0 495.43 Q 97.5714 486.052 195.143 457.637 T 390.286 305.151 T 585.429 246.948 T 780.571 171.565 T 975.714 86.9263 T 1170.86 -40.4082 T 1366 -70.3817 L 1366 0 Z" fill="url(#lg-0.36992033403396674)" opacity="0.35" style="opacity:0.35;animation-play-state:paused" ></path>
<path d="M 0 0 L 0 474.125 Q 97.5714 495.824 195.143 467.978 T 390.286 346.434 T 585.429 247.378 T 780.571 203.37 T 975.714 80.0429 T 1170.86 33.4315 T 1366 -90.3711 L 1366 0 Z" fill="url(#lg-0.36992033403396674)" opacity="0.35" style="opacity:0.35;animation-play-state:paused" ></path>
<path d="M 0 0 L 0 503.085 Q 97.5714 503.853 195.143 470.351 T 390.286 370.798 T 585.429 224.896 T 780.571 140.36 T 975.714 59.6853 T 1170.86 31.9374 T 1366 -93.9168 L 1366 0 Z" fill="url(#lg-0.36992033403396674)" opacity="0.35" style="opacity:0.35;animation-play-state:paused" ></path>
<path d="M 0 0 L 0 466.479 Q 97.5714 439.36 195.143 414.197 T 390.286 292.522 T 585.429 266.504 T 780.571 120.861 T 975.714 37.2468 T 1170.86 -78.637 T 1366 -101.103 L 1366 0 Z" fill="url(#lg-0.36992033403396674)" opacity="0.35" style="opacity:0.35;animation-play-state:paused" ></path>
<path d="M 0 0 L 0 493.15 Q 97.5714 432.4 195.143 399.954 T 390.286 360.652 T 585.429 233.209 T 780.571 194.72 T 975.714 58.205 T 1170.86 21.8387 T 1366 -77.6377 L 1366 0 Z" fill="url(#lg-0.36992033403396674)" opacity="0.35" style="opacity:0.35;animation-play-state:paused" ></path>
<path d="M 0 0 L 0 504.73 Q 97.5714 457.906 195.143 427.209 T 390.286 380.164 T 585.429 233.862 T 780.571 179.634 T 975.714 125.233 T 1170.86 74.5311 T 1366 -44.4602 L 1366 0 Z" fill="url(#lg-0.36992033403396674)" opacity="0.35" style="opacity:0.35;animation-play-state:paused" ></path>
<path d="M 0 0 L 0 539.297 Q 97.5714 491.183 195.143 458.349 T 390.286 355.688 T 585.429 203.921 T 780.571 99.5347 T 975.714 30.0576 T 1170.86 -46.4117 T 1366 -130.546 L 1366 0 Z" fill="url(#lg-0.36992033403396674)" opacity="0.35" style="opacity:0.35;animation-play-state:paused" ></path>
<path d="M 0 0 L 0 532.883 Q 97.5714 481.84 195.143 446.212 T 390.286 297.933 T 585.429 199.867 T 780.571 135.155 T 975.714 69.7279 T 1170.86 -28.6982 T 1366 -87.8862 L 1366 0 Z" fill="url(#lg-0.36992033403396674)" opacity="0.35" style="opacity:0.35;animation-play-state:paused" ></path></g></svg>